<svg width="1200" height="630" viewBox="0 0 1200 630" xmlns="http://www.w3.org/2000/svg" font-family="'Segoe UI',system-ui,-apple-system,sans-serif">
  <rect width="1200" height="630" fill="#0f172a"/>
  <!-- Header -->
  <rect width="1200" height="56" fill="#1e293b"/>
  <text x="24" y="34" fill="#f8fafc" font-size="15" font-weight="700">Risk Treatment Plan Tracker — Enterprise Risk Programme</text>
  <text x="24" y="50" fill="#475569" font-size="10">Al Nakheel F&amp;B Technology Platform · COSO ERM 2017 · ⚠ DUMMY DATA — FOR ILLUSTRATION PURPOSES ONLY</text>
  <rect x="1090" y="14" width="90" height="26" rx="13" fill="#1d4ed8" opacity="0.3" stroke="#3b82f6" stroke-width="1"/>
  <text x="1135" y="31" fill="#93c5fd" font-size="10" font-weight="700" text-anchor="middle">CONFIDENTIAL</text>

  <!-- Summary KPIs -->
  <rect x="24" y="66" width="116" height="60" rx="8" fill="#1e293b" stroke="#334155" stroke-width="1"/>
  <text x="82" y="90" fill="#e2e8f0" font-size="22" font-weight="800" text-anchor="middle">24</text>
  <text x="82" y="106" fill="#64748b" font-size="9" text-anchor="middle" letter-spacing="1">ACTIVE PLANS</text>
  <text x="82" y="118" fill="#475569" font-size="9" text-anchor="middle">In treatment</text>

  <rect x="150" y="66" width="116" height="60" rx="8" fill="#1e293b" stroke="#334155" stroke-width="1"/>
  <text x="208" y="90" fill="#22c55e" font-size="22" font-weight="800" text-anchor="middle">14</text>
  <text x="208" y="106" fill="#64748b" font-size="9" text-anchor="middle" letter-spacing="1">ON TRACK</text>
  <text x="208" y="118" fill="#475569" font-size="9" text-anchor="middle">Within deadline</text>

  <rect x="276" y="66" width="116" height="60" rx="8" fill="#1e293b" stroke="#334155" stroke-width="1"/>
  <text x="334" y="90" fill="#f59e0b" font-size="22" font-weight="800" text-anchor="middle">7</text>
  <text x="334" y="106" fill="#64748b" font-size="9" text-anchor="middle" letter-spacing="1">AT RISK</text>
  <text x="334" y="118" fill="#475569" font-size="9" text-anchor="middle">Needs attention</text>

  <rect x="402" y="66" width="116" height="60" rx="8" fill="#1e293b" stroke="#334155" stroke-width="1"/>
  <text x="460" y="90" fill="#ef4444" font-size="22" font-weight="800" text-anchor="middle">3</text>
  <text x="460" y="106" fill="#64748b" font-size="9" text-anchor="middle" letter-spacing="1">OVERDUE</text>
  <text x="460" y="118" fill="#475569" font-size="9" text-anchor="middle">Past target date</text>

  <rect x="528" y="66" width="116" height="60" rx="8" fill="#1e293b" stroke="#334155" stroke-width="1"/>
  <text x="586" y="90" fill="#a78bfa" font-size="22" font-weight="800" text-anchor="middle">9</text>
  <text x="586" y="106" fill="#64748b" font-size="9" text-anchor="middle" letter-spacing="1">COMPLETED</text>
  <text x="586" y="118" fill="#475569" font-size="9" text-anchor="middle">This quarter</text>

  <!-- Period info -->
  <rect x="1000" y="66" width="176" height="60" rx="8" fill="#1e293b" stroke="#334155" stroke-width="1"/>
  <text x="1088" y="85" fill="#64748b" font-size="9" font-weight="700" text-anchor="middle" letter-spacing="1">AS AT</text>
  <text x="1088" y="105" fill="#e2e8f0" font-size="13" font-weight="700" text-anchor="middle">Q1 2026 Review</text>
  <text x="1088" y="120" fill="#475569" font-size="9" text-anchor="middle">Next: Q2 Risk Committee</text>

  <!-- Table Header -->
  <rect x="24" y="142" width="1152" height="26" fill="#0f172a" rx="4"/>
  <text x="34" y="159" fill="#475569" font-size="9" font-weight="700">RISK ID</text>
  <text x="90" y="159" fill="#475569" font-size="9" font-weight="700">RISK TITLE</text>
  <text x="310" y="159" fill="#475569" font-size="9" font-weight="700">RATING</text>
  <text x="380" y="159" fill="#475569" font-size="9" font-weight="700">TREATMENT</text>
  <text x="480" y="159" fill="#475569" font-size="9" font-weight="700">OWNER</text>
  <text x="570" y="159" fill="#475569" font-size="9" font-weight="700">DUE DATE</text>
  <text x="660" y="159" fill="#475569" font-size="9" font-weight="700">PROGRESS</text>
  <text x="830" y="159" fill="#475569" font-size="9" font-weight="700">STATUS</text>
  <text x="920" y="159" fill="#475569" font-size="9" font-weight="700">LATEST ACTION</text>

  <!-- Row 1 - Critical, Overdue -->
  <rect x="24" y="168" width="1152" height="30" fill="#1e293b"/>
  <text x="34" y="187" fill="#94a3b8" font-size="9">FS-001</text>
  <text x="90" y="187" fill="#e2e8f0" font-size="10">Multi-Brand Cross-Contamination Controls</text>
  <rect x="306" y="174" width="54" height="14" rx="7" fill="#ef4444" opacity="0.25"/>
  <text x="333" y="185" fill="#ef4444" font-size="9" font-weight="700" text-anchor="middle">CRITICAL</text>
  <text x="380" y="187" fill="#94a3b8" font-size="9">Mitigate</text>
  <text x="480" y="187" fill="#94a3b8" font-size="9">COO</text>
  <text x="570" y="187" fill="#ef4444" font-size="9">31 Dec 2025</text>
  <!-- Progress bar bg -->
  <rect x="658" y="176" width="160" height="10" rx="5" fill="#334155"/>
  <rect x="658" y="176" width="60" height="10" rx="5" fill="#ef4444" opacity="0.8"/>
  <text x="826" y="187" fill="#94a3b8" font-size="9">38%</text>
  <rect x="866" y="174" width="48" height="14" rx="7" fill="#ef4444" opacity="0.2" stroke="#ef4444" stroke-width="1"/>
  <text x="890" y="185" fill="#ef4444" font-size="9" font-weight="700" text-anchor="middle">OVERDUE</text>
  <text x="920" y="187" fill="#64748b" font-size="8.5">Training programme delayed — revised plan 15 Feb</text>

  <!-- Row 2 - Critical, At Risk -->
  <rect x="24" y="198" width="1152" height="30" fill="#161f2e"/>
  <text x="34" y="217" fill="#94a3b8" font-size="9">CY-001</text>
  <text x="90" y="217" fill="#e2e8f0" font-size="10">Cybersecurity Incident Response Programme</text>
  <rect x="306" y="204" width="54" height="14" rx="7" fill="#ef4444" opacity="0.25"/>
  <text x="333" y="215" fill="#ef4444" font-size="9" font-weight="700" text-anchor="middle">CRITICAL</text>
  <text x="380" y="217" fill="#94a3b8" font-size="9">Mitigate</text>
  <text x="480" y="217" fill="#94a3b8" font-size="9">CTO</text>
  <text x="570" y="217" fill="#f59e0b" font-size="9">28 Feb 2026</text>
  <rect x="658" y="206" width="160" height="10" rx="5" fill="#334155"/>
  <rect x="658" y="206" width="110" height="10" rx="5" fill="#f59e0b" opacity="0.8"/>
  <text x="826" y="217" fill="#94a3b8" font-size="9">69%</text>
  <rect x="866" y="204" width="46" height="14" rx="7" fill="#f59e0b" opacity="0.2" stroke="#f59e0b" stroke-width="1"/>
  <text x="889" y="215" fill="#f59e0b" font-size="9" font-weight="700" text-anchor="middle">AT RISK</text>
  <text x="920" y="217" fill="#64748b" font-size="8.5">Pen test vendor engaged · IR playbook 80% complete</text>

  <!-- Row 3 - Critical, On Track -->
  <rect x="24" y="228" width="1152" height="30" fill="#1e293b"/>
  <text x="34" y="247" fill="#94a3b8" font-size="9">CO-001</text>
  <text x="90" y="247" fill="#e2e8f0" font-size="10">Multi-Jurisdiction Regulatory Compliance Matrix</text>
  <rect x="306" y="234" width="54" height="14" rx="7" fill="#ef4444" opacity="0.25"/>
  <text x="333" y="245" fill="#ef4444" font-size="9" font-weight="700" text-anchor="middle">CRITICAL</text>
  <text x="380" y="247" fill="#94a3b8" font-size="9">Mitigate</text>
  <text x="480" y="247" fill="#94a3b8" font-size="9">CCO</text>
  <text x="570" y="247" fill="#22c55e" font-size="9">31 Mar 2026</text>
  <rect x="658" y="236" width="160" height="10" rx="5" fill="#334155"/>
  <rect x="658" y="236" width="128" height="10" rx="5" fill="#22c55e" opacity="0.8"/>
  <text x="826" y="247" fill="#94a3b8" font-size="9">80%</text>
  <rect x="866" y="234" width="56" height="14" rx="7" fill="#22c55e" opacity="0.2" stroke="#22c55e" stroke-width="1"/>
  <text x="894" y="245" fill="#22c55e" font-size="9" font-weight="700" text-anchor="middle">ON TRACK</text>
  <text x="920" y="247" fill="#64748b" font-size="8.5">8 of 10 jurisdictions mapped · UAE &amp; KSA complete</text>

  <!-- Row 4 - High, On Track -->
  <rect x="24" y="258" width="1152" height="30" fill="#161f2e"/>
  <text x="34" y="277" fill="#94a3b8" font-size="9">SC-002</text>
  <text x="90" y="277" fill="#e2e8f0" font-size="10">Supplier Diversification — Critical Ingredients</text>
  <rect x="306" y="264" width="40" height="14" rx="7" fill="#f59e0b" opacity="0.25"/>
  <text x="326" y="275" fill="#f59e0b" font-size="9" font-weight="700" text-anchor="middle">HIGH</text>
  <text x="380" y="277" fill="#94a3b8" font-size="9">Mitigate</text>
  <text x="480" y="277" fill="#94a3b8" font-size="9">SCM</text>
  <text x="570" y="277" fill="#22c55e" font-size="9">30 Apr 2026</text>
  <rect x="658" y="266" width="160" height="10" rx="5" fill="#334155"/>
  <rect x="658" y="266" width="96" height="10" rx="5" fill="#22c55e" opacity="0.8"/>
  <text x="826" y="277" fill="#94a3b8" font-size="9">60%</text>
  <rect x="866" y="264" width="56" height="14" rx="7" fill="#22c55e" opacity="0.2" stroke="#22c55e" stroke-width="1"/>
  <text x="894" y="275" fill="#22c55e" font-size="9" font-weight="700" text-anchor="middle">ON TRACK</text>
  <text x="920" y="277" fill="#64748b" font-size="8.5">3 backup suppliers pre-qualified across UAE &amp; KSA</text>

  <!-- Row 5 - High, Overdue -->
  <rect x="24" y="288" width="1152" height="30" fill="#1e293b"/>
  <text x="34" y="307" fill="#94a3b8" font-size="9">HR-003</text>
  <text x="90" y="307" fill="#e2e8f0" font-size="10">Kitchen Staff Retention Programme Implementation</text>
  <rect x="306" y="294" width="40" height="14" rx="7" fill="#f59e0b" opacity="0.25"/>
  <text x="326" y="305" fill="#f59e0b" font-size="9" font-weight="700" text-anchor="middle">HIGH</text>
  <text x="380" y="307" fill="#94a3b8" font-size="9">Mitigate</text>
  <text x="480" y="307" fill="#94a3b8" font-size="9">CHRO</text>
  <text x="570" y="307" fill="#ef4444" font-size="9">31 Jan 2026</text>
  <rect x="658" y="296" width="160" height="10" rx="5" fill="#334155"/>
  <rect x="658" y="296" width="32" height="10" rx="5" fill="#ef4444" opacity="0.8"/>
  <text x="826" y="307" fill="#94a3b8" font-size="9">20%</text>
  <rect x="866" y="294" width="48" height="14" rx="7" fill="#ef4444" opacity="0.2" stroke="#ef4444" stroke-width="1"/>
  <text x="890" y="305" fill="#ef4444" font-size="9" font-weight="700" text-anchor="middle">OVERDUE</text>
  <text x="920" y="307" fill="#64748b" font-size="8.5">Compensation benchmarking delayed · CFO approval pend</text>

  <!-- Row 6 - High, At Risk -->
  <rect x="24" y="318" width="1152" height="30" fill="#161f2e"/>
  <text x="34" y="337" fill="#94a3b8" font-size="9">RE-001</text>
  <text x="90" y="337" fill="#e2e8f0" font-size="10">Crisis Communications Protocol &amp; Media Playbook</text>
  <rect x="306" y="324" width="40" height="14" rx="7" fill="#f59e0b" opacity="0.25"/>
  <text x="326" y="335" fill="#f59e0b" font-size="9" font-weight="700" text-anchor="middle">HIGH</text>
  <text x="380" y="337" fill="#94a3b8" font-size="9">Mitigate</text>
  <text x="480" y="337" fill="#94a3b8" font-size="9">CMO</text>
  <text x="570" y="337" fill="#f59e0b" font-size="9">15 Feb 2026</text>
  <rect x="658" y="326" width="160" height="10" rx="5" fill="#334155"/>
  <rect x="658" y="326" width="80" height="10" rx="5" fill="#f59e0b" opacity="0.8"/>
  <text x="826" y="337" fill="#94a3b8" font-size="9">50%</text>
  <rect x="866" y="324" width="46" height="14" rx="7" fill="#f59e0b" opacity="0.2" stroke="#f59e0b" stroke-width="1"/>
  <text x="889" y="335" fill="#f59e0b" font-size="9" font-weight="700" text-anchor="middle">AT RISK</text>
  <text x="920" y="337" fill="#64748b" font-size="8.5">Draft playbook review in progress · Legal sign-off needed</text>

  <!-- Row 7 - High, On Track -->
  <rect x="24" y="348" width="1152" height="30" fill="#1e293b"/>
  <text x="34" y="367" fill="#94a3b8" font-size="9">FN-002</text>
  <text x="90" y="367" fill="#e2e8f0" font-size="10">Cash Flow Management &amp; Funding Strategy</text>
  <rect x="306" y="354" width="40" height="14" rx="7" fill="#f59e0b" opacity="0.25"/>
  <text x="326" y="365" fill="#f59e0b" font-size="9" font-weight="700" text-anchor="middle">HIGH</text>
  <text x="380" y="367" fill="#94a3b8" font-size="9">Mitigate</text>
  <text x="480" y="367" fill="#94a3b8" font-size="9">CFO</text>
  <text x="570" y="367" fill="#22c55e" font-size="9">31 Mar 2026</text>
  <rect x="658" y="356" width="160" height="10" rx="5" fill="#334155"/>
  <rect x="658" y="356" width="112" height="10" rx="5" fill="#22c55e" opacity="0.8"/>
  <text x="826" y="367" fill="#94a3b8" font-size="9">70%</text>
  <rect x="866" y="354" width="56" height="14" rx="7" fill="#22c55e" opacity="0.2" stroke="#22c55e" stroke-width="1"/>
  <text x="894" y="365" fill="#22c55e" font-size="9" font-weight="700" text-anchor="middle">ON TRACK</text>
  <text x="920" y="367" fill="#64748b" font-size="8.5">Series C term sheet under negotiation · Runway extended</text>

  <!-- Row 8 - Medium, Completed -->
  <rect x="24" y="378" width="1152" height="30" fill="#161f2e"/>
  <text x="34" y="397" fill="#94a3b8" font-size="9">OP-004</text>
  <text x="90" y="397" fill="#e2e8f0" font-size="10">Equipment Preventive Maintenance Schedule</text>
  <rect x="306" y="384" width="54" height="14" rx="7" fill="#22c55e" opacity="0.2"/>
  <text x="333" y="395" fill="#22c55e" font-size="9" font-weight="700" text-anchor="middle">MEDIUM</text>
  <text x="380" y="397" fill="#94a3b8" font-size="9">Mitigate</text>
  <text x="480" y="397" fill="#94a3b8" font-size="9">COO</text>
  <text x="570" y="397" fill="#22c55e" font-size="9">31 Jan 2026</text>
  <rect x="658" y="386" width="160" height="10" rx="5" fill="#334155"/>
  <rect x="658" y="386" width="160" height="10" rx="5" fill="#22c55e" opacity="0.8"/>
  <text x="826" y="397" fill="#94a3b8" font-size="9">100%</text>
  <rect x="866" y="384" width="60" height="14" rx="7" fill="#22c55e" opacity="0.3" stroke="#22c55e" stroke-width="1"/>
  <text x="896" y="395" fill="#22c55e" font-size="9" font-weight="700" text-anchor="middle">COMPLETE</text>
  <text x="920" y="397" fill="#64748b" font-size="8.5">PM schedule live · 100% kitchen coverage achieved</text>

  <!-- Summary Footer -->
  <rect x="24" y="424" width="1152" height="80" rx="8" fill="#1e293b" stroke="#334155" stroke-width="1"/>
  <text x="44" y="444" fill="#64748b" font-size="10" font-weight="700" letter-spacing="1">RISK COMMITTEE ESCALATIONS — Q1 2026</text>

  <rect x="44" y="452" width="350" height="40" rx="6" fill="#ef4444" opacity="0.08" stroke="#ef4444" stroke-width="1"/>
  <text x="219" y="468" fill="#ef4444" font-size="9" font-weight="700" text-anchor="middle">2 OVERDUE CRITICAL TREATMENTS</text>
  <text x="219" y="482" fill="#94a3b8" font-size="8.5" text-anchor="middle">FS-001 &amp; HR-003 require immediate CEO escalation per Risk Policy §8.3</text>

  <rect x="414" y="452" width="350" height="40" rx="6" fill="#f59e0b" opacity="0.08" stroke="#f59e0b" stroke-width="1"/>
  <text x="589" y="468" fill="#f59e0b" font-size="9" font-weight="700" text-anchor="middle">3 HIGH TREATMENTS AT RISK</text>
  <text x="589" y="482" fill="#94a3b8" font-size="8.5" text-anchor="middle">CY-001, RE-001 require management review by 10 Feb</text>

  <rect x="784" y="452" width="350" height="40" rx="6" fill="#22c55e" opacity="0.06" stroke="#22c55e" stroke-width="1"/>
  <text x="959" y="468" fill="#22c55e" font-size="9" font-weight="700" text-anchor="middle">9 TREATMENTS COMPLETED THIS QUARTER</text>
  <text x="959" y="482" fill="#94a3b8" font-size="8.5" text-anchor="middle">Includes OP-004 full PM rollout — control effectiveness confirmed</text>

  <!-- Governance note -->
  <text x="24" y="524" fill="#475569" font-size="9">Treatment plan authority levels: Medium (Risk Owner) · High (CRO/CFO approval) · Critical (CEO approval) · Board acceptance required for formally accepted critical risks</text>
  <text x="24" y="540" fill="#475569" font-size="9">Quarterly review cadence: Risk Owner → CRO/CFO → Risk Committee → Board (semi-annual)</text>

  <!-- Three Lines Legend -->
  <rect x="24" y="556" width="1152" height="26" rx="4" fill="#1e293b" stroke="#334155" stroke-width="1"/>
  <text x="44" y="573" fill="#64748b" font-size="9" font-weight="700">THREE LINES OF DEFENSE:</text>
  <rect x="204" y="562" width="90" height="14" rx="7" fill="#3b82f6" opacity="0.15" stroke="#3b82f6" stroke-width="1"/>
  <text x="249" y="573" fill="#3b82f6" font-size="8.5" font-weight="700" text-anchor="middle">1st: Ops Owners</text>
  <rect x="304" y="562" width="100" height="14" rx="7" fill="#a78bfa" opacity="0.15" stroke="#a78bfa" stroke-width="1"/>
  <text x="354" y="573" fill="#a78bfa" font-size="8.5" font-weight="700" text-anchor="middle">2nd: Risk / Compliance</text>
  <rect x="414" y="562" width="90" height="14" rx="7" fill="#f59e0b" opacity="0.15" stroke="#f59e0b" stroke-width="1"/>
  <text x="459" y="573" fill="#f59e0b" font-size="8.5" font-weight="700" text-anchor="middle">3rd: Internal Audit</text>

  <!-- Footer -->
  <rect x="0" y="598" width="1200" height="32" fill="#1e293b"/>
  <text x="24" y="619" fill="#475569" font-size="10">All company names, risk data, and financial figures shown are fictitious and used for portfolio demonstration only · Not based on any real client engagement</text>
</svg>
