<svg width="1200" height="630" viewBox="0 0 1200 630" xmlns="http://www.w3.org/2000/svg" font-family="'Segoe UI',system-ui,-apple-system,sans-serif">
  <rect width="1200" height="630" fill="#0f172a"/>
  <!-- Header -->
  <rect width="1200" height="56" fill="#1e293b"/>
  <text x="24" y="34" fill="#f8fafc" font-size="15" font-weight="700">Corporate Governance Structure — Nomu Parallel Market Listing</text>
  <text x="24" y="50" fill="#475569" font-size="10">Al Shifa Healthcare Group · Holding + Subsidiary Structure · ⚠ DUMMY DATA — FOR ILLUSTRATION PURPOSES ONLY</text>
  <rect x="1090" y="14" width="90" height="26" rx="13" fill="#1d4ed8" opacity="0.3" stroke="#3b82f6" stroke-width="1"/>
  <text x="1135" y="31" fill="#93c5fd" font-size="10" font-weight="700" text-anchor="middle">CONFIDENTIAL</text>

  <!-- Holding Company Box -->
  <rect x="400" y="74" width="400" height="70" rx="10" fill="#1e3a5f" stroke="#3b82f6" stroke-width="2"/>
  <text x="600" y="104" fill="#93c5fd" font-size="13" font-weight="800" text-anchor="middle">AL SHIFA HOLDING COMPANY</text>
  <text x="600" y="122" fill="#64748b" font-size="10" text-anchor="middle">KSA Private Holding Group · Multi-Sector</text>
  <text x="600" y="136" fill="#475569" font-size="10" text-anchor="middle">Board of Directors · 7 Members (3 Independent)</text>

  <!-- Connector lines from holding -->
  <line x1="400" y1="109" x2="240" y2="109" stroke="#334155" stroke-width="1" stroke-dasharray="4,3"/>
  <line x1="240" y1="109" x2="240" y2="210" stroke="#334155" stroke-width="1" stroke-dasharray="4,3"/>
  <line x1="800" y1="109" x2="960" y2="109" stroke="#334155" stroke-width="1" stroke-dasharray="4,3"/>
  <line x1="960" y1="109" x2="960" y2="210" stroke="#334155" stroke-width="1" stroke-dasharray="4,3"/>
  <line x1="600" y1="144" x2="600" y2="210" stroke="#3b82f6" stroke-width="2"/>

  <!-- Board Committees (Holding) -->
  <rect x="100" y="210" width="280" height="60" rx="8" fill="#1e293b" stroke="#334155" stroke-width="1"/>
  <text x="240" y="236" fill="#f59e0b" font-size="11" font-weight="700" text-anchor="middle">AUDIT COMMITTEE</text>
  <text x="240" y="252" fill="#64748b" font-size="10" text-anchor="middle">3 Independent Directors</text>
  <text x="240" y="264" fill="#475569" font-size="10" text-anchor="middle">Quarterly reporting · IA oversight</text>

  <rect x="820" y="210" width="280" height="60" rx="8" fill="#1e293b" stroke="#334155" stroke-width="1"/>
  <text x="960" y="236" fill="#a78bfa" font-size="11" font-weight="700" text-anchor="middle">RISK COMMITTEE</text>
  <text x="960" y="252" fill="#64748b" font-size="10" text-anchor="middle">2 Executive + 2 Independent</text>
  <text x="960" y="264" fill="#475569" font-size="10" text-anchor="middle">ERM oversight · Appetite approval</text>

  <!-- Healthcare Subsidiary Box -->
  <rect x="380" y="210" width="440" height="70" rx="10" fill="#14532d" stroke="#10b981" stroke-width="2"/>
  <text x="600" y="240" fill="#6ee7b7" font-size="13" font-weight="800" text-anchor="middle">AL SHIFA HEALTHCARE CO. (LISTING ENTITY)</text>
  <text x="600" y="258" fill="#64748b" font-size="10" text-anchor="middle">KSA Healthcare Subsidiary · Nomu Parallel Market Target</text>
  <text x="600" y="272" fill="#475569" font-size="10" text-anchor="middle">Board: 5 Members · 2 Independent · 1 Audit Committee</text>

  <!-- Three Lines -->
  <line x1="600" y1="280" x2="600" y2="320" stroke="#10b981" stroke-width="2"/>

  <!-- Three Lines Label -->
  <text x="600" y="316" fill="#475569" font-size="10" font-weight="700" text-anchor="middle" letter-spacing="2">THREE LINES OF DEFENCE</text>

  <!-- Three Lines Boxes -->
  <rect x="40" y="325" width="330" height="150" rx="10" fill="#1e293b" stroke="#3b82f6" stroke-width="1"/>
  <rect x="40" y="325" width="330" height="30" rx="10" fill="#1e3a5f"/>
  <rect x="40" y="345" width="330" height="10" rx="0" fill="#1e3a5f"/>
  <text x="205" y="346" fill="#93c5fd" font-size="11" font-weight="800" text-anchor="middle">FIRST LINE — OPERATIONS</text>
  <text x="55" y="374" fill="#94a3b8" font-size="10" font-weight="600">· Business unit management controls</text>
  <text x="55" y="392" fill="#94a3b8" font-size="10" font-weight="600">· Clinical operations compliance</text>
  <text x="55" y="410" fill="#94a3b8" font-size="10" font-weight="600">· Day-to-day risk ownership</text>
  <text x="55" y="428" fill="#94a3b8" font-size="10" font-weight="600">· Financial controls execution</text>
  <text x="55" y="446" fill="#94a3b8" font-size="10" font-weight="600">· Policy adherence monitoring</text>

  <rect x="435" y="325" width="330" height="150" rx="10" fill="#1e293b" stroke="#f59e0b" stroke-width="1"/>
  <rect x="435" y="325" width="330" height="30" rx="10" fill="#422006"/>
  <rect x="435" y="345" width="330" height="10" rx="0" fill="#422006"/>
  <text x="600" y="346" fill="#fcd34d" font-size="11" font-weight="800" text-anchor="middle">SECOND LINE — RISK &amp; COMPLIANCE</text>
  <text x="450" y="374" fill="#94a3b8" font-size="10" font-weight="600">· Risk management framework (COSO)</text>
  <text x="450" y="392" fill="#94a3b8" font-size="10" font-weight="600">· ICOFR design &amp; monitoring</text>
  <text x="450" y="410" fill="#94a3b8" font-size="10" font-weight="600">· Regulatory compliance (SFDA, CMA)</text>
  <text x="450" y="428" fill="#94a3b8" font-size="10" font-weight="600">· KRI reporting to Risk Committee</text>
  <text x="450" y="446" fill="#94a3b8" font-size="10" font-weight="600">· Related-party transaction review</text>

  <rect x="830" y="325" width="330" height="150" rx="10" fill="#1e293b" stroke="#10b981" stroke-width="1"/>
  <rect x="830" y="325" width="330" height="30" rx="10" fill="#052e16"/>
  <rect x="830" y="345" width="330" height="10" rx="0" fill="#052e16"/>
  <text x="995" y="346" fill="#6ee7b7" font-size="11" font-weight="800" text-anchor="middle">THIRD LINE — INTERNAL AUDIT</text>
  <text x="845" y="374" fill="#94a3b8" font-size="10" font-weight="600">· Risk-based audit plan (Holding CAE)</text>
  <text x="845" y="392" fill="#94a3b8" font-size="10" font-weight="600">· ICOFR operating effectiveness testing</text>
  <text x="845" y="410" fill="#94a3b8" font-size="10" font-weight="600">· 100% population testing — high risk</text>
  <text x="845" y="428" fill="#94a3b8" font-size="10" font-weight="600">· Direct reporting to Audit Committee</text>
  <text x="845" y="446" fill="#94a3b8" font-size="10" font-weight="600">· CMA listing readiness assurance</text>

  <!-- Status bar -->
  <rect x="40" y="494" width="1120" height="50" rx="10" fill="#1e293b" stroke="#334155" stroke-width="1"/>
  <text x="60" y="514" fill="#64748b" font-size="10" font-weight="700" letter-spacing="1">LISTING READINESS STATUS</text>
  <rect x="60" y="522" width="180" height="12" rx="6" fill="#0f172a"/>
  <rect x="60" y="522" width="162" height="12" rx="6" fill="#10b981"/>
  <text x="255" y="532" fill="#10b981" font-size="10" font-weight="700">90% Governance</text>
  <rect x="310" y="522" width="180" height="12" rx="6" fill="#0f172a"/>
  <rect x="310" y="522" width="126" height="12" rx="6" fill="#3b82f6"/>
  <text x="505" y="532" fill="#3b82f6" font-size="10" font-weight="700">70% ICOFR</text>
  <rect x="555" y="522" width="180" height="12" rx="6" fill="#0f172a"/>
  <rect x="555" y="522" width="153" height="12" rx="6" fill="#f59e0b"/>
  <text x="750" y="532" fill="#f59e0b" font-size="10" font-weight="700">85% Regulatory</text>
  <rect x="800" y="522" width="180" height="12" rx="6" fill="#0f172a"/>
  <rect x="800" y="522" width="144" height="12" rx="6" fill="#a78bfa"/>
  <text x="995" y="532" fill="#a78bfa" font-size="10" font-weight="700">80% Financial Stmts</text>

  <!-- Footer -->
  <rect x="0" y="598" width="1200" height="32" fill="#1e293b"/>
  <text x="24" y="619" fill="#475569" font-size="10">All company names, structures, and data shown are fictitious and used for portfolio demonstration only · Not based on any real client engagement</text>
</svg>
