<svg width="1200" height="630" viewBox="0 0 1200 630" xmlns="http://www.w3.org/2000/svg" font-family="'Segoe UI',system-ui,-apple-system,sans-serif">
  <rect width="1200" height="630" fill="#0f172a"/>
  <!-- Header -->
  <rect width="1200" height="56" fill="#1e293b"/>
  <text x="24" y="34" fill="#f8fafc" font-size="15" font-weight="700">ICOFR Readiness Dashboard — Tadawul Listing Programme</text>
  <text x="24" y="50" fill="#475569" font-size="10">Al Majd Trading Group · Programme Year 2 · ⚠ DUMMY DATA — FOR ILLUSTRATION PURPOSES ONLY</text>
  <rect x="1090" y="14" width="90" height="26" rx="13" fill="#1d4ed8" opacity="0.3" stroke="#3b82f6" stroke-width="1"/>
  <text x="1135" y="31" fill="#93c5fd" font-size="10" font-weight="700" text-anchor="middle">CONFIDENTIAL</text>

  <!-- KPI Cards Row -->
  <rect x="24" y="72" width="170" height="90" rx="10" fill="#1e293b" stroke="#334155" stroke-width="1"/>
  <text x="109" y="112" fill="#3b82f6" font-size="34" font-weight="800" text-anchor="middle">78%</text>
  <text x="109" y="132" fill="#64748b" font-size="10" font-weight="600" text-anchor="middle" letter-spacing="1">OVERALL READINESS</text>
  <rect x="24" y="158" width="170" height="4" rx="2" fill="#1d3a5e"/>
  <rect x="24" y="158" width="133" height="4" rx="2" fill="#3b82f6"/>

  <rect x="206" y="72" width="160" height="90" rx="10" fill="#1e293b" stroke="#334155" stroke-width="1"/>
  <text x="286" y="112" fill="#10b981" font-size="34" font-weight="800" text-anchor="middle">9</text>
  <text x="286" y="132" fill="#64748b" font-size="10" font-weight="600" text-anchor="middle" letter-spacing="1">PROCESSES GREEN</text>

  <rect x="378" y="72" width="160" height="90" rx="10" fill="#1e293b" stroke="#334155" stroke-width="1"/>
  <text x="458" y="112" fill="#f59e0b" font-size="34" font-weight="800" text-anchor="middle">3</text>
  <text x="458" y="132" fill="#64748b" font-size="10" font-weight="600" text-anchor="middle" letter-spacing="1">PROCESSES AMBER</text>

  <rect x="550" y="72" width="160" height="90" rx="10" fill="#1e293b" stroke="#334155" stroke-width="1"/>
  <text x="630" y="112" fill="#ef4444" font-size="34" font-weight="800" text-anchor="middle">2</text>
  <text x="630" y="132" fill="#64748b" font-size="10" font-weight="600" text-anchor="middle" letter-spacing="1">PROCESSES RED</text>

  <rect x="722" y="72" width="160" height="90" rx="10" fill="#1e293b" stroke="#334155" stroke-width="1"/>
  <text x="802" y="112" fill="#a78bfa" font-size="34" font-weight="800" text-anchor="middle">14</text>
  <text x="802" y="132" fill="#64748b" font-size="10" font-weight="600" text-anchor="middle" letter-spacing="1">TOTAL PROCESSES</text>

  <rect x="894" y="72" width="160" height="90" rx="10" fill="#1e293b" stroke="#334155" stroke-width="1"/>
  <text x="974" y="112" fill="#34d399" font-size="34" font-weight="800" text-anchor="middle">Q3</text>
  <text x="974" y="132" fill="#64748b" font-size="10" font-weight="600" text-anchor="middle" letter-spacing="1">TARGET LISTING</text>

  <!-- Section label -->
  <text x="24" y="182" fill="#475569" font-size="10" font-weight="700" letter-spacing="2">ICOFR WORKSTREAM STATUS</text>

  <!-- Process bars -->
  <!-- Row 1 -->
  <rect x="24" y="190" width="560" height="38" rx="6" fill="#1e293b" stroke="#334155" stroke-width="1"/>
  <text x="14" y="190" fill="none"/>
  <rect x="30" y="200" width="8" height="18" rx="2" fill="#10b981"/>
  <text x="48" y="213" fill="#e2e8f0" font-size="11" font-weight="600">Revenue Recognition</text>
  <rect x="200" y="205" width="280" height="8" rx="4" fill="#0f172a"/>
  <rect x="200" y="205" width="252" height="8" rx="4" fill="#10b981"/>
  <text x="492" y="214" fill="#10b981" font-size="11" font-weight="700">90%</text>
  <text x="530" y="214" fill="#475569" font-size="10">CERTIFIED</text>

  <rect x="24" y="232" width="560" height="38" rx="6" fill="#1e293b" stroke="#334155" stroke-width="1"/>
  <rect x="30" y="242" width="8" height="18" rx="2" fill="#10b981"/>
  <text x="48" y="255" fill="#e2e8f0" font-size="11" font-weight="600">Procure-to-Pay</text>
  <rect x="200" y="247" width="280" height="8" rx="4" fill="#0f172a"/>
  <rect x="200" y="247" width="238" height="8" rx="4" fill="#10b981"/>
  <text x="492" y="256" fill="#10b981" font-size="11" font-weight="700">85%</text>
  <text x="530" y="256" fill="#475569" font-size="10">CERTIFIED</text>

  <rect x="24" y="274" width="560" height="38" rx="6" fill="#1e293b" stroke="#334155" stroke-width="1"/>
  <rect x="30" y="284" width="8" height="18" rx="2" fill="#10b981"/>
  <text x="48" y="297" fill="#e2e8f0" font-size="11" font-weight="600">Financial Reporting &amp; Close</text>
  <rect x="200" y="289" width="280" height="8" rx="4" fill="#0f172a"/>
  <rect x="200" y="289" width="224" height="8" rx="4" fill="#10b981"/>
  <text x="492" y="298" fill="#10b981" font-size="11" font-weight="700">80%</text>
  <text x="530" y="298" fill="#475569" font-size="10">CERTIFIED</text>

  <rect x="24" y="316" width="560" height="38" rx="6" fill="#1e293b" stroke="#334155" stroke-width="1"/>
  <rect x="30" y="326" width="8" height="18" rx="2" fill="#f59e0b"/>
  <text x="48" y="339" fill="#e2e8f0" font-size="11" font-weight="600">Treasury &amp; Cash Management</text>
  <rect x="200" y="331" width="280" height="8" rx="4" fill="#0f172a"/>
  <rect x="200" y="331" width="196" height="8" rx="4" fill="#f59e0b"/>
  <text x="492" y="340" fill="#f59e0b" font-size="11" font-weight="700">70%</text>
  <text x="530" y="340" fill="#475569" font-size="10">IN PROGRESS</text>

  <rect x="24" y="358" width="560" height="38" rx="6" fill="#1e293b" stroke="#334155" stroke-width="1"/>
  <rect x="30" y="368" width="8" height="18" rx="2" fill="#f59e0b"/>
  <text x="48" y="381" fill="#e2e8f0" font-size="11" font-weight="600">Human Capital Management</text>
  <rect x="200" y="373" width="280" height="8" rx="4" fill="#0f172a"/>
  <rect x="200" y="373" width="168" height="8" rx="4" fill="#f59e0b"/>
  <text x="492" y="382" fill="#f59e0b" font-size="11" font-weight="700">60%</text>
  <text x="530" y="382" fill="#475569" font-size="10">IN PROGRESS</text>

  <rect x="24" y="400" width="560" height="38" rx="6" fill="#1e293b" stroke="#334155" stroke-width="1"/>
  <rect x="30" y="410" width="8" height="18" rx="2" fill="#ef4444"/>
  <text x="48" y="423" fill="#e2e8f0" font-size="11" font-weight="600">IT General Controls</text>
  <rect x="200" y="415" width="280" height="8" rx="4" fill="#0f172a"/>
  <rect x="200" y="415" width="112" height="8" rx="4" fill="#ef4444"/>
  <text x="492" y="424" fill="#ef4444" font-size="11" font-weight="700">40%</text>
  <text x="530" y="424" fill="#475569" font-size="10">REMEDIATION</text>

  <rect x="24" y="442" width="560" height="38" rx="6" fill="#1e293b" stroke="#334155" stroke-width="1"/>
  <rect x="30" y="452" width="8" height="18" rx="2" fill="#ef4444"/>
  <text x="48" y="465" fill="#e2e8f0" font-size="11" font-weight="600">Related Party Transactions</text>
  <rect x="200" y="457" width="280" height="8" rx="4" fill="#0f172a"/>
  <rect x="200" y="457" width="84" height="8" rx="4" fill="#ef4444"/>
  <text x="492" y="466" fill="#ef4444" font-size="11" font-weight="700">30%</text>
  <text x="530" y="466" fill="#475569" font-size="10">REMEDIATION</text>

  <!-- Right panel: Milestone tracker -->
  <rect x="606" y="178" width="570" height="310" rx="10" fill="#1e293b" stroke="#334155" stroke-width="1"/>
  <text x="624" y="200" fill="#94a3b8" font-size="11" font-weight="700" letter-spacing="2">PROGRAMME MILESTONES</text>

  <!-- Milestones -->
  <circle cx="640" cy="228" r="10" fill="#10b981"/>
  <text x="640" y="232" fill="#fff" font-size="10" font-weight="800" text-anchor="middle">✓</text>
  <text x="660" y="232" fill="#e2e8f0" font-size="12" font-weight="600">ICOFR Scoping &amp; RCM Documentation</text>
  <text x="660" y="246" fill="#475569" font-size="10">All 14 processes scoped · Risk Control Matrix complete</text>

  <rect x="636" y="260" width="2" height="30" fill="#334155"/>
  <circle cx="640" cy="296" r="10" fill="#10b981"/>
  <text x="640" y="300" fill="#fff" font-size="10" font-weight="800" text-anchor="middle">✓</text>
  <text x="660" y="300" fill="#e2e8f0" font-size="12" font-weight="600">Big 4 Auditor Engagement</text>
  <text x="660" y="314" fill="#475569" font-size="10">Reliance-based testing programme agreed</text>

  <rect x="636" y="328" width="2" height="30" fill="#334155"/>
  <circle cx="640" cy="364" r="10" fill="#f59e0b"/>
  <text x="640" y="368" fill="#fff" font-size="10" font-weight="800" text-anchor="middle">▶</text>
  <text x="660" y="368" fill="#e2e8f0" font-size="12" font-weight="600">Design &amp; Operating Effectiveness Testing</text>
  <text x="660" y="382" fill="#475569" font-size="10">9 of 14 processes complete · 5 in progress</text>

  <rect x="636" y="396" width="2" height="30" fill="#334155"/>
  <circle cx="640" cy="432" r="10" fill="#334155" stroke="#475569" stroke-width="1"/>
  <text x="640" y="436" fill="#64748b" font-size="10" font-weight="800" text-anchor="middle">4</text>
  <text x="660" y="436" fill="#64748b" font-size="12" font-weight="600">Remediation &amp; Re-testing</text>
  <text x="660" y="450" fill="#475569" font-size="10">Scheduled Q2 — IT controls &amp; related parties</text>

  <rect x="636" y="464" width="2" height="30" fill="#334155"/>
  <circle cx="640" cy="500" r="10" fill="#334155" stroke="#475569" stroke-width="1"/>
  <text x="640" y="504" fill="#64748b" font-size="10" font-weight="800" text-anchor="middle">5</text>
  <text x="660" y="504" fill="#64748b" font-size="12" font-weight="600">ICOFR Certification &amp; Prospectus Filing</text>
  <text x="660" y="518" fill="#475569" font-size="10">Target Q3 — Tadawul / CMA submission</text>

  <!-- Footer -->
  <rect x="0" y="598" width="1200" height="32" fill="#1e293b"/>
  <text x="24" y="619" fill="#475569" font-size="10">All company names, financial data, and process details shown are fictitious and used for portfolio demonstration only · Not based on any real client engagement</text>
</svg>
